<svg width="568" height="340" viewBox="0 0 568 340" fill="none" xmlns="http://www.w3.org/2000/svg">
    <circle cx="485.5" cy="73.5" r="266.5" fill="#D9D9D9" fill-opacity="0.25"/><circle cx="289.5" cy="73.5" r="70.5" fill="url(#paint0_radial_3_5)"/><circle cx="387" cy="97" r="117" fill="url(#paint1_linear_3_5)"/><path d="M361.348 107.583C291.405 -21.0058 157.543 183.062 0.662479 -23.7705L563.415 -47.4954L876.406 -18.8159L920.113 117.578L710.599 229.268C617.668 235.397 417.715 219.641 361.348 107.583Z" fill="#5682E1"/><path d="M362.073 77.3932C298.063 -4.63698 155.414 123.081 8.19193 -9.30958L570.561 -18.6548L881.464 2.63151L918.955 89.3342L704.98 157.866C612.014 160.808 413.28 148.832 362.073 77.3932Z" fill="url(#paint2_linear_3_5)"/><defs><radialGradient id="paint0_radial_3_5" cx="0" cy="0" r="1" gradientUnits="userSpaceOnUse" gradientTransform="translate(289.952 68.0769) rotate(65.0018) scale(83.7706)"><stop stop-color="#A30DFF"/><stop offset="1" stop-color="#C76CFF" stop-opacity="0.9"/></radialGradient><linearGradient id="paint1_linear_3_5" x1="329" y1="-38" x2="446.5" y2="214" gradientUnits="userSpaceOnUse"><stop stop-color="#FFBB0D" stop-opacity="0.14"/><stop offset="1" stop-color="#FF3D00" stop-opacity="0.67"/></linearGradient><linearGradient id="paint2_linear_3_5" x1="707.724" y1="-3.59861" x2="606.165" y2="217.155" gradientUnits="userSpaceOnUse"><stop stop-color="#5682E1"/><stop offset="1" stop-color="#4BC2F3"/></linearGradient></defs>
</svg>
